<svg xmlns="http://www.w3.org/2000/svg" width="160" height="145" viewBox="0 0 160 145">
<g>
<path d="M 144.00 131.57 C144.00,132.80 135.52,133.00 84.67,133.00 C52.03,133.00 25.03,132.70 24.67,132.33 C23.23,130.90 24.13,130.00 27.00,130.00 L 30.00 130.00 L 29.97 93.25 C29.94,60.72 29.77,56.72 28.47,58.44 C27.66,59.51 27.00,60.77 27.00,61.25 C27.00,61.73 26.55,61.84 26.00,61.50 C25.45,61.16 25.00,59.78 25.00,58.44 C25.00,55.90 23.62,55.19 22.43,57.11 C21.19,59.11 20.16,55.91 21.05,52.82 C21.80,50.21 21.68,49.97 19.94,50.52 C18.36,51.02 18.00,50.66 18.00,48.55 C18.00,46.74 18.92,45.41 21.11,44.08 C24.16,42.22 24.18,42.17 22.08,41.04 C18.98,39.38 20.63,37.75 24.99,38.17 C28.31,38.49 28.86,38.21 29.78,35.76 C31.14,32.18 32.68,32.25 33.48,35.93 C34.07,38.61 34.41,38.81 37.52,38.30 C39.39,38.00 41.72,38.07 42.71,38.45 C44.27,39.06 44.13,39.35 41.64,40.67 L 38.77 42.18 L 41.89 44.08 C43.60,45.12 45.00,46.39 45.00,46.90 C45.00,47.42 45.28,48.57 45.63,49.47 C46.14,50.81 45.78,50.98 43.61,50.44 C41.06,49.80 41.00,49.88 42.02,52.56 C42.61,54.09 42.81,56.05 42.47,56.92 C41.94,58.32 41.75,58.30 40.88,56.75 C39.38,54.07 38.00,54.67 38.00,58.00 C38.00,61.59 37.43,61.73 34.94,58.75 C33.10,56.54 33.07,57.16 33.03,92.75 C33.01,116.27 33.35,129.00 34.00,129.00 C34.57,129.00 35.00,126.00 35.00,122.00 L 35.00 115.00 L 49.00 115.00 C56.70,115.00 63.00,115.39 63.00,115.87 C63.00,116.36 62.34,118.62 61.53,120.92 C60.22,124.63 60.23,125.15 61.60,125.68 C62.44,126.00 63.50,125.87 63.94,125.38 C64.80,124.44 69.00,110.92 69.00,109.09 C69.00,106.95 65.93,108.04 64.99,110.53 L 64.03 113.06 L 37.50 112.50 L 37.19 108.25 C36.95,104.94 37.23,104.00 38.44,104.00 C40.69,104.00 40.75,87.50 38.50,86.64 C37.67,86.32 37.00,84.94 37.00,83.56 L 37.00 81.06 L 50.25 80.78 L 63.50 80.50 L 63.50 78.00 C63.50,75.50 63.48,75.50 54.54,75.70 C49.61,75.81 45.04,75.45 44.38,74.90 C43.62,74.27 42.96,74.26 42.59,74.86 C41.82,76.10 37.02,73.91 37.01,72.32 C37.00,70.43 40.80,69.67 51.50,69.46 C57.00,69.35 62.06,69.20 62.75,69.13 C64.45,68.95 64.27,64.95 62.47,62.56 C60.60,60.09 60.61,59.00 62.50,59.00 C63.33,59.00 64.00,58.55 64.00,58.00 C64.00,57.45 64.68,57.00 65.50,57.00 C66.32,57.00 67.00,56.55 67.00,56.00 C67.00,55.45 67.68,55.00 68.50,55.00 C69.32,55.00 70.00,54.59 70.00,54.08 C70.00,53.57 71.35,52.86 73.00,52.50 C74.65,52.14 76.00,51.43 76.00,50.92 C76.00,50.41 76.47,50.00 77.04,50.00 C77.61,50.00 79.05,49.10 80.23,48.00 C83.15,45.28 84.26,45.45 90.28,49.50 C93.13,51.42 95.85,53.00 96.31,53.00 C96.76,53.00 99.10,54.35 101.50,56.00 C103.90,57.65 106.34,59.00 106.93,59.00 C108.41,59.00 108.27,60.26 106.53,62.56 C104.73,64.95 104.55,68.95 106.25,69.13 C106.94,69.20 112.00,69.35 117.50,69.48 C128.26,69.71 132.00,70.45 131.99,72.32 C131.99,72.97 130.78,74.06 129.30,74.75 C127.15,75.74 126.45,75.74 125.81,74.75 C125.18,73.79 124.82,73.77 124.22,74.70 C123.70,75.51 120.54,75.83 114.47,75.70 L 105.50 75.50 L 104.87 81.00 L 132.00 81.00 L 132.00 83.59 C132.00,85.35 131.35,86.36 130.00,86.71 C128.20,87.18 128.00,88.07 128.00,95.62 C128.00,102.40 128.29,104.00 129.50,104.00 C130.61,104.00 131.00,105.17 131.00,108.50 L 131.00 113.00 L 117.98 113.00 C105.06,113.00 104.95,112.98 103.82,110.50 C103.19,109.12 101.88,108.00 100.90,108.00 C99.22,108.00 99.23,108.38 101.11,115.15 C103.53,123.90 104.61,126.00 106.66,126.00 C106.68,126.00 106.71,126.00 106.73,126.00 C107.12,126.00 107.41,126.00 107.60,125.86 C108.14,125.45 107.78,123.85 106.36,117.62 L 106.28 117.25 C105.77,115.00 105.78,115.00 119.28,115.00 C119.95,115.00 120.59,115.00 121.20,115.00 C128.63,114.99 131.75,114.98 133.06,116.53 C134.02,117.65 134.01,119.59 134.00,122.94 C134.00,123.32 134.00,123.72 134.00,124.14 C134.00,127.87 134.38,129.89 135.00,129.50 C136.33,128.68 136.38,58.00 135.05,58.00 C134.53,58.00 133.64,58.79 133.07,59.75 C132.17,61.28 131.91,61.31 131.03,60.00 C130.48,59.17 130.02,57.64 130.02,56.60 C130.00,54.75 129.93,54.75 128.00,56.50 C126.04,58.27 126.00,58.25 126.00,55.35 C126.00,53.73 126.56,51.80 127.25,51.07 C128.28,49.98 128.00,49.86 125.68,50.41 C123.16,51.00 122.89,50.83 123.18,48.82 C123.35,47.58 124.99,45.57 126.81,44.35 L 130.11 42.12 L 127.31 40.64 C124.89,39.36 124.74,39.06 126.26,38.47 C127.23,38.09 129.42,37.98 131.12,38.23 C133.81,38.63 134.35,38.31 135.22,35.80 C136.39,32.45 138.19,32.58 139.02,36.07 C139.51,38.16 140.08,38.44 143.27,38.17 C148.45,37.72 149.83,38.85 146.89,41.12 C145.57,42.13 145.06,42.97 145.75,42.98 C147.73,43.01 151.00,46.80 151.00,49.07 C151.00,50.66 150.55,50.99 149.05,50.52 C147.30,49.96 147.17,50.27 147.70,53.56 C148.25,56.91 148.12,57.17 146.27,56.58 C144.67,56.08 144.10,56.48 143.60,58.47 C142.84,61.50 141.43,61.76 140.71,59.00 C140.42,57.90 139.69,57.00 139.08,57.00 C138.29,57.00 138.05,67.27 138.24,93.25 L 138.50 129.50 L 141.25 129.82 C142.82,130.00 144.00,130.75 144.00,131.57 ZM 71.95 104.75 L 72.00 116.00 L 77.00 116.00 L 77.00 103.63 C77.00,92.64 77.23,90.98 79.07,88.63 C80.56,86.75 82.07,86.00 84.42,86.00 C90.10,86.00 90.90,87.95 91.22,102.54 L 91.50 115.50 L 96.50 115.50 L 96.77 88.97 L 97.03 62.44 L 91.43 59.22 C88.34,57.45 85.21,56.00 84.45,56.00 C83.40,56.00 73.65,61.16 72.21,62.47 C71.94,62.72 71.84,79.92 71.95,104.75 ZM 89.58 39.11 C85.53,41.58 83.02,41.49 78.90,38.72 C74.60,35.82 72.72,30.74 74.40,26.58 C76.03,22.56 80.31,19.60 84.50,19.60 C94.97,19.60 98.62,33.60 89.58,39.11 ZM 43.39 89.50 L 43.00 104.00 L 68.00 104.00 L 68.00 87.00 C68.00,76.33 67.63,70.00 67.00,70.00 C66.40,70.00 66.00,73.83 66.00,79.50 C66.00,84.86 65.58,89.00 65.05,89.00 C64.52,89.00 63.96,92.04 63.80,95.75 C63.57,100.95 63.16,102.50 62.00,102.50 C60.82,102.50 60.44,100.84 60.21,94.75 L 59.92 87.00 L 48.31 87.00 L 48.59 93.81 C48.88,101.18 48.07,103.63 45.65,102.70 C44.53,102.27 44.00,100.33 43.74,95.80 ZM 101.21 86.25 L 101.00 104.00 L 126.00 104.00 L 126.00 97.00 C126.00,93.00 125.57,90.00 125.00,90.00 C124.43,90.00 124.00,92.86 124.00,96.57 C124.00,102.29 123.77,103.10 122.25,102.81 C120.79,102.53 120.45,101.18 120.21,94.74 L 119.92 87.00 L 108.00 87.00 L 108.00 95.00 C108.00,101.44 107.71,103.00 106.50,103.00 C105.31,103.00 105.00,101.56 105.00,96.00 C105.00,90.52 104.68,89.00 103.53,89.00 C102.36,89.00 102.00,86.94 101.75,78.75 C101.53,72.02 101.35,74.60 101.21,86.25 ZM 117.80 95.75 C117.52,102.14 117.37,102.52 114.96,102.80 C111.39,103.21 111.00,102.48 111.00,95.33 L 111.00 89.00 L 118.09 89.00 ZM 57.80 95.75 C57.52,102.14 57.37,102.52 54.96,102.80 C51.39,103.21 51.00,102.48 51.00,95.33 L 51.00 89.00 L 58.09 89.00 ZM 69.00 124.00 C69.00,124.62 74.67,125.00 84.00,125.00 C93.33,125.00 99.00,124.62 99.00,124.00 C99.00,123.38 93.33,123.00 84.00,123.00 C74.67,123.00 69.00,123.38 69.00,124.00 ZM 86.00 68.93 C86.00,74.61 85.70,76.00 84.47,76.00 C82.35,76.00 81.84,74.15 82.19,67.89 C82.43,63.72 82.89,62.44 84.25,62.19 C85.78,61.89 86.00,62.73 86.00,68.93 ZM 70.00 121.00 C70.00,121.62 75.33,122.00 84.00,122.00 C92.67,122.00 98.00,121.62 98.00,121.00 C98.00,120.38 92.67,120.00 84.00,120.00 C75.33,120.00 70.00,120.38 70.00,121.00 ZM 71.50 118.00 C71.10,118.65 75.49,119.00 83.94,119.00 C91.98,119.00 97.00,118.62 97.00,118.00 C97.00,117.39 92.19,117.00 84.56,117.00 C77.34,117.00 71.86,117.42 71.50,118.00 ZM 80.81 71.23 C80.58,74.33 80.03,75.57 78.75,75.81 C77.79,76.00 76.95,75.78 76.89,75.32 C75.99,68.32 76.84,65.34 79.46,66.35 C80.72,66.83 81.04,68.00 80.81,71.23 ZM 93.00 80.90 C93.00,81.97 86.37,82.62 79.75,82.20 C71.42,81.66 74.64,80.00 84.00,80.00 C88.95,80.00 93.00,80.40 93.00,80.90 ZM 91.80 70.67 C91.52,75.05 90.27,76.93 88.69,75.35 C88.31,74.98 88.00,72.72 88.00,70.33 C88.00,66.63 88.30,66.00 90.05,66.00 C91.88,66.00 92.08,66.53 91.80,70.67 ZM 113.00 94.08 C113.00,96.52 115.34,96.18 115.82,93.67 C116.01,92.68 115.50,92.00 114.57,92.00 C113.65,92.00 113.00,92.85 113.00,94.08 ZM 53.00 94.08 C53.00,96.52 55.34,96.18 55.82,93.67 C56.01,92.68 55.50,92.00 54.57,92.00 C53.65,92.00 53.00,92.85 53.00,94.08 ZM 112.64 99.50 C112.95,100.32 113.84,101.00 114.61,101.00 C115.37,101.00 116.00,100.32 116.00,99.50 C116.00,98.67 115.11,98.00 114.03,98.00 C112.69,98.00 112.25,98.48 112.64,99.50 ZM 53.00 99.50 C53.00,100.32 53.67,101.00 54.50,101.00 C55.33,101.00 56.00,100.32 56.00,99.50 C56.00,98.68 55.33,98.00 54.50,98.00 C53.67,98.00 53.00,98.68 53.00,99.50 Z" fill="rgb(37,35,29)"/>
<path d="M 69.00 124.00 C69.00,123.38 74.67,123.00 84.00,123.00 C93.33,123.00 99.00,123.38 99.00,124.00 C99.00,124.62 93.33,125.00 84.00,125.00 C74.67,125.00 69.00,124.62 69.00,124.00 ZM 70.00 121.00 C70.00,120.38 75.33,120.00 84.00,120.00 C92.67,120.00 98.00,120.38 98.00,121.00 C98.00,121.62 92.67,122.00 84.00,122.00 C75.33,122.00 70.00,121.62 70.00,121.00 ZM 71.50 118.00 C71.86,117.42 77.34,117.00 84.56,117.00 C92.19,117.00 97.00,117.39 97.00,118.00 C97.00,118.62 91.98,119.00 83.94,119.00 C75.49,119.00 71.10,118.65 71.50,118.00 Z" fill="rgb(162,158,152)"/>
<path d="M 0.00 72.50 L 0.00 0.00 L 80.00 0.00 L 160.00 0.00 L 160.00 72.50 L 160.00 145.00 L 80.00 145.00 L 0.00 145.00 L 0.00 72.50 ZM 144.00 131.57 C144.00,130.75 142.82,130.00 141.25,129.82 L 138.50 129.50 L 138.24 93.25 C138.05,67.27 138.29,57.00 139.08,57.00 C139.69,57.00 140.42,57.90 140.71,59.00 C141.43,61.76 142.84,61.50 143.60,58.47 C144.10,56.48 144.67,56.08 146.27,56.58 C148.12,57.17 148.25,56.91 147.70,53.56 C147.17,50.27 147.30,49.96 149.05,50.52 C150.55,50.99 151.00,50.66 151.00,49.07 C151.00,46.80 147.73,43.01 145.75,42.98 C145.06,42.97 145.57,42.13 146.89,41.12 C149.83,38.85 148.45,37.72 143.27,38.17 C140.08,38.44 139.51,38.16 139.02,36.07 C138.19,32.58 136.39,32.45 135.22,35.80 C134.35,38.31 133.81,38.63 131.12,38.23 C129.42,37.98 127.23,38.09 126.26,38.47 C124.74,39.06 124.89,39.36 127.31,40.64 L 130.11 42.12 L 126.81 44.35 C124.99,45.57 123.35,47.58 123.18,48.82 C122.89,50.83 123.16,51.00 125.68,50.41 C128.00,49.86 128.28,49.98 127.25,51.07 C126.56,51.80 126.00,53.73 126.00,55.35 C126.00,58.25 126.04,58.27 128.00,56.50 C129.93,54.75 130.00,54.75 130.02,56.60 C130.02,57.64 130.48,59.17 131.03,60.00 C131.91,61.31 132.17,61.28 133.07,59.75 C133.64,58.79 134.53,58.00 135.05,58.00 C136.38,58.00 136.33,128.68 135.00,129.50 C134.38,129.89 134.00,127.87 134.00,124.14 C134.00,114.56 134.70,115.00 119.28,115.00 C105.78,115.00 105.77,115.00 106.28,117.25 C108.29,126.13 108.29,126.00 106.66,126.00 C104.61,126.00 103.53,123.90 101.11,115.15 C99.23,108.38 99.22,108.00 100.90,108.00 C101.88,108.00 103.19,109.12 103.82,110.50 C104.95,112.98 105.06,113.00 117.98,113.00 L 131.00 113.00 L 131.00 108.50 C131.00,105.17 130.61,104.00 129.50,104.00 C128.29,104.00 128.00,102.40 128.00,95.62 C128.00,88.07 128.20,87.18 130.00,86.71 C131.35,86.36 132.00,85.35 132.00,83.59 L 132.00 81.00 L 118.43 81.00 L 104.87 81.00 L 105.18 78.25 L 105.50 75.50 L 114.47 75.70 C120.54,75.83 123.70,75.51 124.22,74.70 C124.82,73.77 125.18,73.79 125.81,74.75 C126.45,75.74 127.15,75.74 129.30,74.75 C130.78,74.06 131.99,72.97 131.99,72.32 C132.00,70.45 128.26,69.71 117.50,69.48 C112.00,69.35 106.94,69.20 106.25,69.13 C104.55,68.95 104.73,64.95 106.53,62.56 C108.27,60.26 108.41,59.00 106.93,59.00 C106.34,59.00 103.90,57.65 101.50,56.00 C99.10,54.35 96.76,53.00 96.31,53.00 C95.85,53.00 93.13,51.42 90.28,49.50 C84.26,45.45 83.15,45.28 80.23,48.00 C79.05,49.10 77.61,50.00 77.04,50.00 C76.47,50.00 76.00,50.41 76.00,50.92 C76.00,51.43 74.65,52.14 73.00,52.50 C71.35,52.86 70.00,53.57 70.00,54.08 C70.00,54.59 69.32,55.00 68.50,55.00 C67.68,55.00 67.00,55.45 67.00,56.00 C67.00,56.55 66.32,57.00 65.50,57.00 C64.68,57.00 64.00,57.45 64.00,58.00 C64.00,58.55 63.33,59.00 62.50,59.00 C60.61,59.00 60.60,60.09 62.47,62.56 C64.27,64.95 64.45,68.95 62.75,69.13 C62.06,69.20 57.00,69.35 51.50,69.46 C40.80,69.67 37.00,70.43 37.01,72.32 C37.02,73.91 41.82,76.10 42.59,74.86 C42.96,74.26 43.62,74.27 44.38,74.90 C45.04,75.45 49.61,75.81 54.54,75.70 C63.48,75.50 63.50,75.50 63.50,78.00 L 63.50 80.50 L 50.25 80.78 L 37.00 81.06 L 37.00 83.56 C37.00,84.94 37.67,86.32 38.50,86.64 C40.75,87.50 40.69,104.00 38.44,104.00 C37.23,104.00 36.95,104.94 37.19,108.25 L 37.50 112.50 L 50.76 112.78 L 64.03 113.06 L 64.99 110.53 C65.93,108.04 69.00,106.95 69.00,109.09 C69.00,110.92 64.80,124.44 63.94,125.38 C63.50,125.87 62.44,126.00 61.60,125.68 C60.23,125.15 60.22,124.63 61.53,120.92 C62.34,118.62 63.00,116.36 63.00,115.87 C63.00,115.39 56.70,115.00 49.00,115.00 L 35.00 115.00 L 35.00 122.00 C35.00,126.00 34.57,129.00 34.00,129.00 C33.35,129.00 33.01,116.27 33.03,92.75 C33.07,57.16 33.10,56.54 34.94,58.75 C37.43,61.73 38.00,61.59 38.00,58.00 C38.00,54.67 39.38,54.07 40.88,56.75 C41.75,58.30 41.94,58.32 42.47,56.92 C42.81,56.05 42.61,54.09 42.02,52.56 C41.00,49.88 41.06,49.80 43.61,50.44 C45.78,50.98 46.14,50.81 45.63,49.47 C45.28,48.57 45.00,47.42 45.00,46.90 C45.00,46.39 43.60,45.12 41.89,44.08 L 38.77 42.18 L 41.64 40.67 C44.13,39.35 44.27,39.06 42.71,38.45 C41.72,38.07 39.39,38.00 37.52,38.30 C34.41,38.81 34.07,38.61 33.48,35.93 C32.68,32.25 31.14,32.18 29.78,35.76 C28.86,38.21 28.31,38.49 24.99,38.17 C20.63,37.75 18.98,39.38 22.08,41.04 C24.18,42.17 24.16,42.22 21.11,44.08 C18.92,45.41 18.00,46.74 18.00,48.55 C18.00,50.66 18.36,51.02 19.94,50.52 C21.68,49.97 21.80,50.21 21.05,52.82 C20.16,55.91 21.19,59.11 22.43,57.11 C23.62,55.19 25.00,55.90 25.00,58.44 C25.00,59.78 25.45,61.16 26.00,61.50 C26.55,61.84 27.00,61.73 27.00,61.25 C27.00,60.77 27.66,59.51 28.47,58.44 C29.77,56.72 29.94,60.72 29.97,93.25 L 30.00 130.00 L 27.00 130.00 C24.13,130.00 23.23,130.90 24.67,132.33 C25.03,132.70 52.03,133.00 84.67,133.00 C135.52,133.00 144.00,132.80 144.00,131.57 ZM 89.58 39.11 C98.62,33.60 94.97,19.60 84.50,19.60 C80.31,19.60 76.03,22.56 74.40,26.58 C72.72,30.74 74.60,35.82 78.90,38.72 C83.02,41.49 85.53,41.58 89.58,39.11 ZM 71.95 104.75 C71.84,79.92 71.94,62.72 72.21,62.47 C73.65,61.16 83.40,56.00 84.45,56.00 C85.21,56.00 88.34,57.45 91.43,59.22 L 97.03 62.44 L 96.77 88.97 L 96.50 115.50 L 94.00 115.50 L 91.50 115.50 L 91.22 102.54 C90.90,87.95 90.10,86.00 84.42,86.00 C82.07,86.00 80.56,86.75 79.07,88.63 C77.23,90.98 77.00,92.64 77.00,103.63 L 77.00 116.00 L 74.50 116.00 L 72.00 116.00 L 71.95 104.75 ZM 93.00 80.90 C93.00,80.40 88.95,80.00 84.00,80.00 C74.64,80.00 71.42,81.66 79.75,82.20 C86.37,82.62 93.00,81.97 93.00,80.90 ZM 80.81 71.23 C81.04,68.00 80.72,66.83 79.46,66.35 C76.84,65.34 75.99,68.32 76.89,75.32 C76.95,75.78 77.79,76.00 78.75,75.81 C80.03,75.57 80.58,74.33 80.81,71.23 ZM 86.00 68.93 C86.00,62.73 85.78,61.89 84.25,62.19 C82.89,62.44 82.43,63.72 82.19,67.89 C81.84,74.15 82.35,76.00 84.47,76.00 C85.70,76.00 86.00,74.61 86.00,68.93 ZM 91.80 70.67 C92.08,66.53 91.88,66.00 90.05,66.00 C88.30,66.00 88.00,66.63 88.00,70.33 C88.00,72.72 88.31,74.98 88.69,75.35 C90.27,76.93 91.52,75.05 91.80,70.67 ZM 43.19 96.75 L 43.39 89.50 L 43.74 95.80 C44.00,100.33 44.53,102.27 45.65,102.70 C48.07,103.63 48.88,101.18 48.59,93.81 L 48.31 87.00 L 54.12 87.00 L 59.92 87.00 L 60.21 94.75 C60.44,100.84 60.82,102.50 62.00,102.50 C63.16,102.50 63.57,100.95 63.80,95.75 C63.96,92.04 64.52,89.00 65.05,89.00 C65.58,89.00 66.00,84.86 66.00,79.50 C66.00,73.83 66.40,70.00 67.00,70.00 C67.63,70.00 68.00,76.33 68.00,87.00 L 68.00 104.00 L 55.50 104.00 L 43.00 104.00 L 43.19 96.75 ZM 57.80 95.75 L 58.09 89.00 L 54.55 89.00 L 51.00 89.00 L 51.00 95.33 C51.00,102.48 51.39,103.21 54.96,102.80 C57.37,102.52 57.52,102.14 57.80,95.75 ZM 101.21 86.25 C101.35,74.60 101.53,72.02 101.75,78.75 C102.00,86.94 102.36,89.00 103.53,89.00 C104.68,89.00 105.00,90.52 105.00,96.00 C105.00,101.56 105.31,103.00 106.50,103.00 C107.71,103.00 108.00,101.44 108.00,95.00 L 108.00 87.00 L 113.96 87.00 L 119.92 87.00 L 120.21 94.74 C120.45,101.18 120.79,102.53 122.25,102.81 C123.77,103.10 124.00,102.29 124.00,96.57 C124.00,92.86 124.43,90.00 125.00,90.00 C125.57,90.00 126.00,93.00 126.00,97.00 L 126.00 104.00 L 113.50 104.00 L 101.00 104.00 L 101.21 86.25 ZM 117.80 95.75 L 118.09 89.00 L 114.55 89.00 L 111.00 89.00 L 111.00 95.33 C111.00,102.48 111.39,103.21 114.96,102.80 C117.37,102.52 117.52,102.14 117.80,95.75 ZM 53.00 99.50 C53.00,98.68 53.67,98.00 54.50,98.00 C55.33,98.00 56.00,98.68 56.00,99.50 C56.00,100.32 55.33,101.00 54.50,101.00 C53.67,101.00 53.00,100.32 53.00,99.50 ZM 53.00 94.08 C53.00,92.85 53.65,92.00 54.57,92.00 C55.50,92.00 56.01,92.68 55.82,93.67 C55.34,96.18 53.00,96.52 53.00,94.08 ZM 112.64 99.50 C112.25,98.48 112.69,98.00 114.03,98.00 C115.11,98.00 116.00,98.67 116.00,99.50 C116.00,100.32 115.37,101.00 114.61,101.00 C113.84,101.00 112.95,100.32 112.64,99.50 ZM 113.00 94.08 C113.00,92.85 113.65,92.00 114.57,92.00 C115.50,92.00 116.01,92.68 115.82,93.67 C115.34,96.18 113.00,96.52 113.00,94.08 Z" fill="rgb(230,224,214)"/>
</g>
</svg>